<svg id="visual" viewBox="0 0 900 600" width="900" height="600" xmlns="http://www.w3.org/2000/svg" xmlns:xlink="http://www.w3.org/1999/xlink" version="1.1"><g stroke-width="1" stroke-linejoin="bevel"><path d="M446 280.1L349 327.9L446 362.9Z" fill="#e65e14" stroke="#e65e14"></path><path d="M446 280.1L361 234.1L349 327.9Z" fill="#ec6711" stroke="#ec6711"></path><path d="M349 327.9L380 439.6L446 362.9Z" fill="#da4b19" stroke="#da4b19"></path><path d="M380 439.6L470 428.6L446 362.9Z" fill="#d03d1c" stroke="#d03d1c"></path><path d="M446 362.9L542 354.9L446 280.1Z" fill="#dd5018" stroke="#dd5018"></path><path d="M470 428.6L542 354.9L446 362.9Z" fill="#d7471a" stroke="#d7471a"></path><path d="M467 180.4L361 234.1L446 280.1Z" fill="#e65e14" stroke="#e65e14"></path><path d="M467 180.4L376 179.4L361 234.1Z" fill="#d03d1c" stroke="#d03d1c"></path><path d="M286 154.4L268 260.1L361 234.1Z" fill="#e96213" stroke="#e96213"></path><path d="M361 234.1L268 260.1L349 327.9Z" fill="#ec6711" stroke="#ec6711"></path><path d="M349 327.9L247 430.6L380 439.6Z" fill="#d7471a" stroke="#d7471a"></path><path d="M554 250.1L467 180.4L446 280.1Z" fill="#e65e14" stroke="#e65e14"></path><path d="M268 260.1L246 321.9L349 327.9Z" fill="#e35916" stroke="#e35916"></path><path d="M542 354.9L554 250.1L446 280.1Z" fill="#dd5018" stroke="#dd5018"></path><path d="M470 428.6L554 406.6L542 354.9Z" fill="#d4421b" stroke="#d4421b"></path><path d="M542 354.9L607 262.1L554 250.1Z" fill="#dd5018" stroke="#dd5018"></path><path d="M246 321.9L247 430.6L349 327.9Z" fill="#e96213" stroke="#e96213"></path><path d="M274 106.7L286 154.4L339 65.7Z" fill="#da4b19" stroke="#da4b19"></path><path d="M376 179.4L286 154.4L361 234.1Z" fill="#e35916" stroke="#e35916"></path><path d="M176 244.1L193 332.9L246 321.9Z" fill="#dd5018" stroke="#dd5018"></path><path d="M341 528.3L449 523.3L380 439.6Z" fill="#e05517" stroke="#e05517"></path><path d="M380 439.6L449 523.3L470 428.6Z" fill="#d7471a" stroke="#d7471a"></path><path d="M470 428.6L521 496.3L554 406.6Z" fill="#e65e14" stroke="#e65e14"></path><path d="M449 523.3L521 496.3L470 428.6Z" fill="#cd381d" stroke="#cd381d"></path><path d="M626 337.9L607 262.1L542 354.9Z" fill="#e96213" stroke="#e96213"></path><path d="M554 250.1L556 165.4L467 180.4Z" fill="#d4421b" stroke="#d4421b"></path><path d="M176 244.1L246 321.9L268 260.1Z" fill="#cd381d" stroke="#cd381d"></path><path d="M246 321.9L193 332.9L247 430.6Z" fill="#e35916" stroke="#e35916"></path><path d="M607 262.1L556 165.4L554 250.1Z" fill="#e05517" stroke="#e05517"></path><path d="M467 180.4L468 104.7L376 179.4Z" fill="#e96213" stroke="#e96213"></path><path d="M258 492.3L341 528.3L380 439.6Z" fill="#d4421b" stroke="#d4421b"></path><path d="M624 408.6L626 337.9L554 406.6Z" fill="#d7471a" stroke="#d7471a"></path><path d="M554 406.6L626 337.9L542 354.9Z" fill="#e65e14" stroke="#e65e14"></path><path d="M556 165.4L468 104.7L467 180.4Z" fill="#e96213" stroke="#e96213"></path><path d="M202 446.6L258 492.3L247 430.6Z" fill="#e65e14" stroke="#e65e14"></path><path d="M247 430.6L258 492.3L380 439.6Z" fill="#d03d1c" stroke="#d03d1c"></path><path d="M615 518.3L624 408.6L554 406.6Z" fill="#d4421b" stroke="#d4421b"></path><path d="M193 332.9L202 446.6L247 430.6Z" fill="#e35916" stroke="#e35916"></path><path d="M197 192.4L176 244.1L268 260.1Z" fill="#e05517" stroke="#e05517"></path><path d="M71 408.6L173 495.3L202 446.6Z" fill="#ec6711" stroke="#ec6711"></path><path d="M286 154.4L197 192.4L268 260.1Z" fill="#d4421b" stroke="#d4421b"></path><path d="M339 65.7L286 154.4L376 179.4Z" fill="#cd381d" stroke="#cd381d"></path><path d="M286 154.4L274 106.7L197 192.4Z" fill="#d03d1c" stroke="#d03d1c"></path><path d="M468 104.7L339 65.7L376 179.4Z" fill="#da4b19" stroke="#da4b19"></path><path d="M341 528.3L430 600L449 523.3Z" fill="#da4b19" stroke="#da4b19"></path><path d="M449 523.3L541 600L521 496.3Z" fill="#e65e14" stroke="#e65e14"></path><path d="M521 496.3L615 518.3L554 406.6Z" fill="#d03d1c" stroke="#d03d1c"></path><path d="M348 600L430 600L341 528.3Z" fill="#d7471a" stroke="#d7471a"></path><path d="M556 165.4L537 69.7L468 104.7Z" fill="#d4421b" stroke="#d4421b"></path><path d="M456 0L362 0L339 65.7Z" fill="#ec6711" stroke="#ec6711"></path><path d="M628 88.7L537 69.7L556 165.4Z" fill="#da4b19" stroke="#da4b19"></path><path d="M279 600L348 600L341 528.3Z" fill="#e96213" stroke="#e96213"></path><path d="M279 600L341 528.3L258 492.3Z" fill="#da4b19" stroke="#da4b19"></path><path d="M541 600L615 518.3L521 496.3Z" fill="#e05517" stroke="#e05517"></path><path d="M107 340.9L202 446.6L193 332.9Z" fill="#da4b19" stroke="#da4b19"></path><path d="M202 446.6L173 495.3L258 492.3Z" fill="#e96213" stroke="#e96213"></path><path d="M607 262.1L651 157.4L556 165.4Z" fill="#e65e14" stroke="#e65e14"></path><path d="M708 159.4L651 157.4L607 262.1Z" fill="#d03d1c" stroke="#d03d1c"></path><path d="M719 321.9L607 262.1L626 337.9Z" fill="#e35916" stroke="#e35916"></path><path d="M719 321.9L626 337.9L713 420.6Z" fill="#dd5018" stroke="#dd5018"></path><path d="M102 238.1L107 340.9L176 244.1Z" fill="#d4421b" stroke="#d4421b"></path><path d="M176 244.1L107 340.9L193 332.9Z" fill="#d7471a" stroke="#d7471a"></path><path d="M183 600L279 600L258 492.3Z" fill="#d4421b" stroke="#d4421b"></path><path d="M430 600L541 600L449 523.3Z" fill="#d03d1c" stroke="#d03d1c"></path><path d="M713 420.6L626 337.9L624 408.6Z" fill="#e96213" stroke="#e96213"></path><path d="M105 166.4L176 244.1L197 192.4Z" fill="#e65e14" stroke="#e65e14"></path><path d="M105 166.4L102 238.1L176 244.1Z" fill="#d7471a" stroke="#d7471a"></path><path d="M728 95.7L628 88.7L651 157.4Z" fill="#e35916" stroke="#e35916"></path><path d="M651 157.4L628 88.7L556 165.4Z" fill="#d4421b" stroke="#d4421b"></path><path d="M615 518.3L713 420.6L624 408.6Z" fill="#e65e14" stroke="#e65e14"></path><path d="M715 532.3L713 420.6L615 518.3Z" fill="#d4421b" stroke="#d4421b"></path><path d="M456 0L468 104.7L537 69.7Z" fill="#e05517" stroke="#e05517"></path><path d="M456 0L339 65.7L468 104.7Z" fill="#e35916" stroke="#e35916"></path><path d="M339 65.7L283 0L274 106.7Z" fill="#d7471a" stroke="#d7471a"></path><path d="M165 82.7L105 166.4L197 192.4Z" fill="#d7471a" stroke="#d7471a"></path><path d="M529 0L456 0L537 69.7Z" fill="#d7471a" stroke="#d7471a"></path><path d="M806 341.9L742 280.1L719 321.9Z" fill="#d7471a" stroke="#d7471a"></path><path d="M719 321.9L742 280.1L607 262.1Z" fill="#d03d1c" stroke="#d03d1c"></path><path d="M165 82.7L197 192.4L274 106.7Z" fill="#da4b19" stroke="#da4b19"></path><path d="M194 0L165 82.7L274 106.7Z" fill="#d03d1c" stroke="#d03d1c"></path><path d="M742 280.1L708 159.4L607 262.1Z" fill="#d7471a" stroke="#d7471a"></path><path d="M630 0L537 69.7L628 88.7Z" fill="#e05517" stroke="#e05517"></path><path d="M630 0L529 0L537 69.7Z" fill="#cd381d" stroke="#cd381d"></path><path d="M362 0L283 0L339 65.7Z" fill="#d7471a" stroke="#d7471a"></path><path d="M0 331.9L71 408.6L107 340.9Z" fill="#cd381d" stroke="#cd381d"></path><path d="M107 340.9L71 408.6L202 446.6Z" fill="#ec6711" stroke="#ec6711"></path><path d="M173 495.3L183 600L258 492.3Z" fill="#da4b19" stroke="#da4b19"></path><path d="M0 331.9L107 340.9L0 264.1Z" fill="#d03d1c" stroke="#d03d1c"></path><path d="M111 600L183 600L173 495.3Z" fill="#d7471a" stroke="#d7471a"></path><path d="M71 408.6L84 498.3L173 495.3Z" fill="#e96213" stroke="#e96213"></path><path d="M541 600L653 600L615 518.3Z" fill="#e65e14" stroke="#e65e14"></path><path d="M653 600L715 532.3L615 518.3Z" fill="#dd5018" stroke="#dd5018"></path><path d="M713 420.6L788 422.6L719 321.9Z" fill="#dd5018" stroke="#dd5018"></path><path d="M97 0L100 88.7L165 82.7Z" fill="#e65e14" stroke="#e65e14"></path><path d="M165 82.7L100 88.7L105 166.4Z" fill="#e96213" stroke="#e96213"></path><path d="M0 264.1L107 340.9L102 238.1Z" fill="#cd381d" stroke="#cd381d"></path><path d="M283 0L194 0L274 106.7Z" fill="#e05517" stroke="#e05517"></path><path d="M728 95.7L630 0L628 88.7Z" fill="#e35916" stroke="#e35916"></path><path d="M708 159.4L728 95.7L651 157.4Z" fill="#d03d1c" stroke="#d03d1c"></path><path d="M821 190.4L728 95.7L708 159.4Z" fill="#e35916" stroke="#e35916"></path><path d="M715 532.3L788 422.6L713 420.6Z" fill="#e35916" stroke="#e35916"></path><path d="M742 280.1L821 190.4L708 159.4Z" fill="#d4421b" stroke="#d4421b"></path><path d="M788 422.6L806 341.9L719 321.9Z" fill="#cd381d" stroke="#cd381d"></path><path d="M84 498.3L111 600L173 495.3Z" fill="#d03d1c" stroke="#d03d1c"></path><path d="M71 408.6L0 426.6L84 498.3Z" fill="#ec6711" stroke="#ec6711"></path><path d="M84 498.3L0 534.3L111 600Z" fill="#d7471a" stroke="#d7471a"></path><path d="M0 264.1L102 238.1L0 185.4Z" fill="#ec6711" stroke="#ec6711"></path><path d="M0 185.4L102 238.1L105 166.4Z" fill="#d03d1c" stroke="#d03d1c"></path><path d="M0 331.9L0 426.6L71 408.6Z" fill="#dd5018" stroke="#dd5018"></path><path d="M100 88.7L0 185.4L105 166.4Z" fill="#d7471a" stroke="#d7471a"></path><path d="M653 600L733 600L715 532.3Z" fill="#e65e14" stroke="#e65e14"></path><path d="M715 532.3L812 516.3L788 422.6Z" fill="#cd381d" stroke="#cd381d"></path><path d="M900 252.1L829 245.1L806 341.9Z" fill="#d03d1c" stroke="#d03d1c"></path><path d="M806 341.9L829 245.1L742 280.1Z" fill="#da4b19" stroke="#da4b19"></path><path d="M829 245.1L821 190.4L742 280.1Z" fill="#e05517" stroke="#e05517"></path><path d="M194 0L97 0L165 82.7Z" fill="#d4421b" stroke="#d4421b"></path><path d="M100 88.7L0 65.7L0 185.4Z" fill="#dd5018" stroke="#dd5018"></path><path d="M733 600L812 516.3L715 532.3Z" fill="#dd5018" stroke="#dd5018"></path><path d="M900 422.6L900 361.9L806 341.9Z" fill="#e65e14" stroke="#e65e14"></path><path d="M0 426.6L0 534.3L84 498.3Z" fill="#e96213" stroke="#e96213"></path><path d="M808 61.7L741 0L728 95.7Z" fill="#da4b19" stroke="#da4b19"></path><path d="M728 95.7L741 0L630 0Z" fill="#ec6711" stroke="#ec6711"></path><path d="M900 82.7L808 61.7L821 190.4Z" fill="#e05517" stroke="#e05517"></path><path d="M821 190.4L808 61.7L728 95.7Z" fill="#e05517" stroke="#e05517"></path><path d="M97 0L0 65.7L100 88.7Z" fill="#ec6711" stroke="#ec6711"></path><path d="M0 534.3L0 600L111 600Z" fill="#d7471a" stroke="#d7471a"></path><path d="M900 422.6L806 341.9L788 422.6Z" fill="#e05517" stroke="#e05517"></path><path d="M829 245.1L900 182.4L821 190.4Z" fill="#d4421b" stroke="#d4421b"></path><path d="M900 361.9L900 252.1L806 341.9Z" fill="#ec6711" stroke="#ec6711"></path><path d="M812 516.3L900 422.6L788 422.6Z" fill="#ec6711" stroke="#ec6711"></path><path d="M733 600L824 600L812 516.3Z" fill="#e96213" stroke="#e96213"></path><path d="M900 532.3L900 422.6L812 516.3Z" fill="#e96213" stroke="#e96213"></path><path d="M808 61.7L805 0L741 0Z" fill="#e96213" stroke="#e96213"></path><path d="M900 0L805 0L808 61.7Z" fill="#dd5018" stroke="#dd5018"></path><path d="M900 252.1L900 182.4L829 245.1Z" fill="#e96213" stroke="#e96213"></path><path d="M97 0L0 0L0 65.7Z" fill="#ec6711" stroke="#ec6711"></path><path d="M824 600L900 532.3L812 516.3Z" fill="#ec6711" stroke="#ec6711"></path><path d="M900 182.4L900 82.7L821 190.4Z" fill="#dd5018" stroke="#dd5018"></path><path d="M824 600L900 600L900 532.3Z" fill="#e65e14" stroke="#e65e14"></path><path d="M900 82.7L900 0L808 61.7Z" fill="#e35916" stroke="#e35916"></path></g></svg>